<svg xmlns="http://www.w3.org/2000/svg" width="1024" height="1024" viewBox="0 0 1024 1024">
  <defs>
    <linearGradient id="bg" x1="0" y1="0" x2="1" y2="1">
      <stop offset="0" stop-color="#26335A"/>
      <stop offset="1" stop-color="#0E1528"/>
    </linearGradient>
  </defs>
  <rect width="1024" height="1024" rx="224" fill="url(#bg)"/>
  <!-- 在庫の箱（lucide package を太めの線で） -->
  <g transform="translate(176 200) scale(26)" fill="none" stroke="#FFFFFF" stroke-width="1.9" stroke-linecap="round" stroke-linejoin="round">
    <path d="M11 21.73a2 2 0 0 0 2 0l7-4A2 2 0 0 0 21 16V8a2 2 0 0 0-1-1.73l-7-4a2 2 0 0 0-2 0l-7 4A2 2 0 0 0 3 8v8a2 2 0 0 0 1 1.73z"/>
    <path d="M12 22V12"/>
    <path d="M3.29 7 12 12l8.71-5"/>
    <path d="m7.5 4.27 9 5.15"/>
  </g>
  <!-- Bang の「!」 -->
  <circle cx="770" cy="262" r="150" fill="#FFB800"/>
  <rect x="749" y="172" width="42" height="118" rx="21" fill="#0E1528"/>
  <circle cx="770" cy="340" r="24" fill="#0E1528"/>
</svg>
